<?xml version="1.0" encoding="utf-8"?>
<!-- Generator: Adobe Illustrator 16.0.0, SVG Export Plug-In . SVG Version: 6.00 Build 0)  -->
<!DOCTYPE svg PUBLIC "-//W3C//DTD SVG 1.1//EN" "http://www.w3.org/Graphics/SVG/1.1/DTD/svg11.dtd">
<svg version="1.1"
	 id="svg2" xmlns:rdf="http://www.w3.org/1999/02/22-rdf-syntax-ns#" xmlns:inkscape="http://www.inkscape.org/namespaces/inkscape" xmlns:svg="http://www.w3.org/2000/svg" xmlns:cc="http://creativecommons.org/ns#" xmlns:dc="http://purl.org/dc/elements/1.1/" xmlns:sodipodi="http://sodipodi.sourceforge.net/DTD/sodipodi-0.dtd" inkscape:version="0.48.4 r9939" sodipodi:docname="Twitter_bird_logo_2012.svg"
	 xmlns="http://www.w3.org/2000/svg" xmlns:xlink="http://www.w3.org/1999/xlink" x="0px" y="0px" width="100px" height="100px"
	 viewBox="35.753 19.689 100 100" enable-background="new 35.753 19.689 100 100" xml:space="preserve">
<sodipodi:namedview  id="base" fit-margin-top="0" showgrid="false" borderopacity="1.0" bordercolor="#666666" pagecolor="#ffffff" inkscape:cy="50.181142" inkscape:zoom="3.7200571" fit-margin-left="0" inkscape:cx="101.29413" fit-margin-bottom="0" fit-margin-right="0" inkscape:window-width="1280" inkscape:pageshadow="2" inkscape:window-maximized="1" inkscape:pageopacity="0.0" inkscape:window-y="-8" inkscape:current-layer="layer1" inkscape:window-x="-8" inkscape:window-height="962" inkscape:document-units="px">
	</sodipodi:namedview>
<g id="layer1" transform="translate(-282.32053,-396.30734)" inkscape:label="Layer 1" inkscape:groupmode="layer">
	<path id="path5" inkscape:connector-curvature="0" fill="#818181" d="M417.993,435.032c-3.673,1.629-7.621,2.73-11.764,3.225
		c4.229-2.535,7.477-6.548,9.006-11.332c-3.959,2.347-8.342,4.052-13.009,4.97c-3.735-3.981-9.059-6.468-14.95-6.468
		c-11.312,0-20.483,9.171-20.483,20.483c0,1.605,0.181,3.168,0.53,4.667c-17.023-0.854-32.116-9.009-42.219-21.401
		c-1.764,3.025-2.774,6.543-2.774,10.297c0,7.106,3.616,13.376,9.112,17.049c-3.357-0.106-6.516-1.028-9.278-2.562
		c-0.002,0.085-0.002,0.171-0.002,0.257c0,9.924,7.061,18.203,16.431,20.085c-1.719,0.469-3.528,0.719-5.396,0.719
		c-1.32,0-2.603-0.129-3.854-0.367c2.606,8.137,10.171,14.059,19.135,14.224c-7.011,5.494-15.842,8.769-25.439,8.769
		c-1.653,0-3.284-0.097-4.886-0.286c9.065,5.812,19.832,9.203,31.399,9.203c37.677,0,58.279-31.211,58.279-58.28
		c0-0.888-0.02-1.771-0.06-2.65C411.774,442.747,415.246,439.14,417.993,435.032L417.993,435.032z"/>
</g>
</svg>
