<?xml version="1.0" encoding="utf-8"?>
<!-- Generator: Adobe Illustrator 16.0.4, SVG Export Plug-In . SVG Version: 6.00 Build 0)  -->
<!DOCTYPE svg PUBLIC "-//W3C//DTD SVG 1.1//EN" "http://www.w3.org/Graphics/SVG/1.1/DTD/svg11.dtd">
<svg version="1.1" id="Layer_1" xmlns="http://www.w3.org/2000/svg" xmlns:xlink="http://www.w3.org/1999/xlink" x="0px" y="0px"
	 width="100px" height="100px" viewBox="-21.429 -25 100 100" enable-background="new -21.429 -25 100 100" xml:space="preserve">
<path fill="#414042" d="M46.721,17.135l-4.852-7.38c-0.459-0.697-1.237-1.118-2.072-1.118h-24.95c-0.835,0-1.613,0.421-2.072,1.118
	l-4.852,7.38c-0.573,0.873-0.538,2.012,0.089,2.848l17.326,23.134c0.468,0.627,1.203,0.994,1.984,0.994
	c0.78,0,1.516-0.367,1.984-0.994l17.326-23.134C47.26,19.147,47.294,18.008,46.721,17.135z M27.379,11.117l4.708,6.554h-9.53
	l4.708-6.554H27.379z M32.613,19.324l-5.291,19.198L22.03,19.324H32.613z M29.414,11.117h8.567l-4.283,5.964L29.414,11.117z
	 M14.847,11.117h10.383l-4.284,5.964l-2.854-3.974c-0.267-0.371-0.782-0.457-1.153-0.189c-0.37,0.266-0.455,0.783-0.188,1.153
	l2.585,3.6h-8.796L14.847,11.117z M10.614,19.324h9.702l5.649,20.497L10.614,19.324z M28.678,39.82l5.649-20.497h1.745
	c0.456,0,0.825-0.37,0.825-0.827c0-0.456-0.369-0.826-0.825-0.826H35.31l4.593-6.394l4.203,6.394h-2.866
	c-0.457,0-0.827,0.37-0.827,0.826c0,0.457,0.37,0.827,0.827,0.827h2.79L28.678,39.82z"/>
</svg>
