<?xml version="1.0" encoding="utf-8"?>
<!-- Generator: Adobe Illustrator 16.0.0, SVG Export Plug-In . SVG Version: 6.00 Build 0)  -->
<!DOCTYPE svg PUBLIC "-//W3C//DTD SVG 1.1//EN" "http://www.w3.org/Graphics/SVG/1.1/DTD/svg11.dtd">
<svg version="1.1" id="Layer_1" xmlns="http://www.w3.org/2000/svg" xmlns:xlink="http://www.w3.org/1999/xlink" x="0px" y="0px"
	 width="50px" height="50px" viewBox="0 0 50 50" enable-background="new 0 0 50 50" xml:space="preserve">
<path fill="#414042" d="M49.634,45.342L47.41,33.267c-0.111-0.607-0.402-1.166-0.84-1.598L16.11,1.204
	c-0.57-0.571-1.346-0.889-2.151-0.889c-0.808,0-1.583,0.318-2.152,0.889l-9.851,9.851c-1.187,1.19-1.187,3.114,0,4.304
	l30.462,30.458c0.437,0.436,0.994,0.731,1.601,0.839l12.074,2.225c0.183,0.036,0.368,0.055,0.551,0.055
	c0.799,0,1.578-0.318,2.15-0.893C49.503,47.337,49.817,46.322,49.634,45.342z M36.133,43.955l8.572-8.574l0.661,3.564l-5.668,5.666
	L36.133,43.955z M4.107,13.206l2.222-2.221l21.536,21.537c0.196,0.197,0.455,0.299,0.715,0.299s0.521-0.102,0.719-0.299
	c0.394-0.396,0.394-1.04,0-1.437L7.761,9.552l2.374-2.372l4.469,4.468c0.199,0.199,0.458,0.299,0.718,0.299
	c0.259,0,0.518-0.1,0.717-0.299c0.396-0.394,0.396-1.037,0-1.435l-4.47-4.47l2.391-2.388l29.951,29.951l-2.388,2.392l-21.668-21.67
	c-0.397-0.397-1.039-0.397-1.436,0c-0.396,0.397-0.396,1.041,0,1.434l21.673,21.67l-2.374,2.372l-4.604-4.604
	c-0.396-0.396-1.037-0.396-1.435,0c-0.397,0.398-0.397,1.039,0,1.437l4.605,4.604l-2.223,2.215L4.107,13.206z M42.118,45.058
	l3.692-3.691l0.832,4.526L42.118,45.058z"/>
</svg>
