<?xml version="1.0" encoding="utf-8"?>
<!-- Generator: Adobe Illustrator 16.0.4, SVG Export Plug-In . SVG Version: 6.00 Build 0)  -->
<!DOCTYPE svg PUBLIC "-//W3C//DTD SVG 1.1//EN" "http://www.w3.org/Graphics/SVG/1.1/DTD/svg11.dtd">
<svg version="1.1" id="Layer_1" xmlns="http://www.w3.org/2000/svg" xmlns:xlink="http://www.w3.org/1999/xlink" x="0px" y="0px"
	 width="377.387px" height="110.977px" viewBox="0 0 377.387 110.977" enable-background="new 0 0 377.387 110.977"
	 xml:space="preserve">
<polygon fill="#232323" points="25.788,44.57 42.82,82.493 50.466,82.493 25.788,27.545 0.207,82.493 8.132,82.493 "/>
<polyline fill="#2CBA9E" points="32.042,82.493 34.976,82.493 25.51,61.416 15.697,82.493 18.737,82.493 "/>
<path fill="#232323" d="M64.523,61.498v20.995h-7.802v-51.7h8.84c4.331,0,7.602,0.301,9.812,0.904
	c2.231,0.603,4.195,1.741,5.893,3.415c2.968,2.902,4.453,6.562,4.453,10.983c0,4.732-1.585,8.482-4.754,11.25
	c-3.17,2.768-7.445,4.151-12.825,4.151L64.523,61.498L64.523,61.498z M64.523,54.266h2.913c7.166,0,10.749-2.757,10.749-8.271
	c0-5.335-3.694-8.002-11.083-8.002h-2.579V54.266z"/>
<path fill="#232323" d="M101.556,61.498v20.995h-7.802v-51.7h8.84c4.331,0,7.601,0.301,9.811,0.904
	c2.232,0.603,4.196,1.741,5.894,3.415c2.968,2.902,4.453,6.562,4.453,10.983c0,4.732-1.585,8.482-4.754,11.25
	c-3.17,2.768-7.445,4.151-12.825,4.151L101.556,61.498L101.556,61.498z M101.556,54.266h2.913c7.166,0,10.749-2.757,10.749-8.271
	c0-5.335-3.695-8.002-11.083-8.002h-2.579V54.266z"/>
<path fill="#232323" d="M148.3,60.46l16.005,22.032h-9.543L139.995,61.33h-1.406v21.162h-7.802V30.793h9.141
	c6.831,0,11.764,1.284,14.8,3.852c3.35,2.857,5.023,6.63,5.023,11.317c0,3.661-1.05,6.81-3.147,9.442
	C154.505,58.039,151.737,59.724,148.3,60.46z M138.589,54.534h2.478c7.389,0,11.083-2.824,11.083-8.472
	c0-5.29-3.594-7.937-10.781-7.937h-2.779V54.534L138.589,54.534z"/>
<path fill="#232323" d="M168.323,56.409c0-7.277,2.667-13.527,8.003-18.751c5.312-5.224,11.696-7.835,19.151-7.835
	c7.367,0,13.684,2.634,18.953,7.902c5.289,5.269,7.937,11.597,7.937,18.984c0,7.435-2.656,13.74-7.97,18.918
	c-5.336,5.202-11.775,7.803-19.32,7.803c-6.676,0-12.668-2.312-17.981-6.932C171.248,71.388,168.323,64.691,168.323,56.409z
	 M176.192,56.493c0,5.71,1.919,10.404,5.76,14.084c3.816,3.68,8.226,5.521,13.226,5.521c5.424,0,10-1.874,13.729-5.621
	c3.729-3.791,5.592-8.408,5.592-13.851c0-5.509-1.842-10.125-5.525-13.851c-3.661-3.747-8.191-5.621-13.594-5.621
	c-5.38,0-9.923,1.874-13.628,5.621C178.044,46.479,176.192,51.051,176.192,56.493z"/>
<path fill="#232323" d="M259.935,69.936h-22.133l-5.76,12.557h-8.404l25.582-54.947l24.678,54.947h-8.538L259.935,69.936z
	 M256.754,62.603l-7.668-17.579l-8.036,17.579H256.754z"/>
<path fill="#232323" d="M316.155,33.556v9.225c-4.509-3.772-9.175-5.659-13.995-5.659c-5.312,0-9.789,1.909-13.428,5.727
	c-3.661,3.795-5.49,8.438-5.49,13.929c0,5.425,1.829,10.001,5.49,13.729c3.66,3.729,8.147,5.593,13.46,5.593
	c2.746,0,5.078-0.446,6.998-1.34c1.072-0.445,2.183-1.049,3.332-1.808s2.36-1.674,3.633-2.746v9.425
	c-4.465,2.534-9.151,3.802-14.062,3.802c-7.389,0-13.694-2.578-18.918-7.735c-5.201-5.201-7.802-11.473-7.802-18.818
	c0-6.585,2.177-12.456,6.528-17.611c5.357-6.317,12.289-9.477,20.794-9.477C307.337,29.789,311.824,31.045,316.155,33.556z"/>
<path fill="#232323" d="M335.24,51.018h22.301V30.793h7.802v51.699h-7.802V58.351H335.24v24.142h-7.803v-51.7h7.803V51.018z"/>
</svg>
