<?xml version="1.0" encoding="utf-8"?>
<!-- Generator: Adobe Illustrator 16.0.0, SVG Export Plug-In . SVG Version: 6.00 Build 0)  -->
<!DOCTYPE svg PUBLIC "-//W3C//DTD SVG 1.1//EN" "http://www.w3.org/Graphics/SVG/1.1/DTD/svg11.dtd">
<svg version="1.1" id="Layer_1" xmlns="http://www.w3.org/2000/svg" xmlns:xlink="http://www.w3.org/1999/xlink" x="0px" y="0px"
	 width="50px" height="50px" viewBox="0 0 50 50" enable-background="new 0 0 50 50" xml:space="preserve">
<g>
	<path fill="#414042" d="M41.562,0.546H11.606c-1.697,0-3.075,1.376-3.075,3.076v9.975c0,1.028,0.515,1.989,1.371,2.56l9.786,6.517
		c-4.543,2.459-7.636,7.271-7.636,12.79c0,8.014,6.52,14.533,14.534,14.533c8.014,0,14.531-6.52,14.531-14.533
		c0-5.52-3.092-10.33-7.635-12.79l9.785-6.517c0.857-0.57,1.371-1.532,1.371-2.56V3.622C44.639,1.922,43.262,0.546,41.562,0.546z
		 M38.043,35.463c0,6.328-5.131,11.457-11.457,11.457c-6.33,0-11.459-5.129-11.459-11.457s5.129-11.459,11.459-11.459
		C32.912,24.004,38.043,29.135,38.043,35.463z M41.562,13.597L35.703,17.5v-5.855c0-0.565-0.459-1.025-1.025-1.025
		c-0.568,0-1.025,0.459-1.025,1.025v7.221l-3.697,2.462c-1.082-0.257-2.209-0.399-3.369-0.399c-1.161,0-2.288,0.142-3.372,0.399
		l-3.761-2.504v-7.179c0-0.565-0.458-1.025-1.024-1.025c-0.567,0-1.025,0.459-1.025,1.025v5.813l-5.797-3.86V3.622h5.797v2.743
		c0,0.566,0.458,1.026,1.025,1.026c0.566,0,1.024-0.46,1.024-1.026V3.622h14.199v2.743c0,0.566,0.457,1.026,1.025,1.026
		c0.566,0,1.025-0.46,1.025-1.026V3.622h5.859V13.597z"/>
	<path fill="#414042" d="M24.747,27.41l-1.708,3.459l-3.815,0.553c-0.772,0.111-1.414,0.654-1.655,1.396
		c-0.241,0.742-0.041,1.557,0.518,2.102l2.762,2.691l-0.651,3.801c-0.133,0.77,0.183,1.547,0.816,2.006
		c0.356,0.258,0.779,0.391,1.204,0.391c0.326,0,0.655-0.076,0.955-0.234l3.414-1.795l3.41,1.795
		c0.301,0.156,0.629,0.234,0.955,0.234c0.426,0,0.85-0.133,1.205-0.391c0.631-0.459,0.947-1.236,0.816-2.006l-0.65-3.801l2.76-2.693
		c0.559-0.543,0.76-1.357,0.518-2.1c-0.24-0.742-0.883-1.285-1.654-1.396l-3.816-0.553l-1.705-3.459
		c-0.346-0.699-1.059-1.143-1.838-1.143C25.805,26.268,25.091,26.711,24.747,27.41z M28.768,32.742l4.883,0.711l-3.533,3.443
		l0.834,4.861l-4.365-2.295l-4.369,2.295l0.834-4.861l-3.534-3.443l4.884-0.711l2.184-4.424L28.768,32.742z"/>
</g>
</svg>
