<?xml version="1.0" encoding="utf-8"?>
<!-- Generator: Adobe Illustrator 16.0.0, SVG Export Plug-In . SVG Version: 6.00 Build 0)  -->
<!DOCTYPE svg PUBLIC "-//W3C//DTD SVG 1.1//EN" "http://www.w3.org/Graphics/SVG/1.1/DTD/svg11.dtd">
<svg version="1.1" id="Layer_1" xmlns="http://www.w3.org/2000/svg" xmlns:xlink="http://www.w3.org/1999/xlink" x="0px" y="0px"
	 width="50px" height="50px" viewBox="0 0 50 50" enable-background="new 0 0 50 50" xml:space="preserve">
<g>
	<path fill="#414042" d="M41.764,0H23.294c-0.822,0-1.611,0.327-2.193,0.909L7.025,14.985c-0.582,0.582-0.908,1.371-0.908,2.193
		v29.347c0,1.712,1.389,3.102,3.102,3.102h32.545c1.713,0,3.102-1.39,3.102-3.102V3.102C44.865,1.389,43.477,0,41.764,0z
		 M21.412,4.984v10.21H11.202L21.412,4.984z M41.764,46.525H9.219V17.262h13.228c0.57,0,1.033-0.462,1.033-1.033V3.102h18.285
		V46.525z"/>
	<path fill="#414042" d="M13.917,22.762c-0.571,0-1.034,0.461-1.034,1.033c0,0.57,0.463,1.034,1.034,1.034h22.354
		c0.571,0,1.034-0.464,1.034-1.034c0-0.571-0.463-1.033-1.034-1.033H13.917z"/>
	<path fill="#414042" d="M13.917,30.353h11.177c0.57,0,1.033-0.464,1.033-1.035c0-0.57-0.463-1.032-1.033-1.032H13.917
		c-0.571,0-1.034,0.462-1.034,1.032C12.882,29.889,13.346,30.353,13.917,30.353z"/>
	<path fill="#414042" d="M30.578,28.285c-0.57,0-1.032,0.462-1.032,1.032c0,0.571,0.462,1.035,1.032,1.035h6.091
		c0.57,0,1.032-0.464,1.032-1.035c0-0.57-0.462-1.032-1.032-1.032H30.578z"/>
	<path fill="#414042" d="M13.917,35.875h22.354c0.571,0,1.034-0.464,1.034-1.034c0-0.571-0.463-1.033-1.034-1.033H13.917
		c-0.571,0-1.034,0.462-1.034,1.033C12.882,35.411,13.346,35.875,13.917,35.875z"/>
	<path fill="#414042" d="M36.669,39.331H25.492c-0.571,0-1.035,0.463-1.035,1.033c0,0.571,0.464,1.034,1.035,1.034h11.177
		c0.57,0,1.032-0.463,1.032-1.034C37.701,39.794,37.239,39.331,36.669,39.331z"/>
	<path fill="#414042" d="M20.005,39.331h-6.089c-0.571,0-1.034,0.463-1.034,1.033c0,0.571,0.463,1.034,1.034,1.034h6.089
		c0.57,0,1.034-0.463,1.034-1.034C21.039,39.794,20.576,39.331,20.005,39.331z"/>
</g>
</svg>
