<?xml version="1.0" encoding="utf-8"?>
<!-- Generator: Adobe Illustrator 16.0.0, SVG Export Plug-In . SVG Version: 6.00 Build 0)  -->
<!DOCTYPE svg PUBLIC "-//W3C//DTD SVG 1.1//EN" "http://www.w3.org/Graphics/SVG/1.1/DTD/svg11.dtd">
<svg version="1.1" id="Layer_1" xmlns="http://www.w3.org/2000/svg" xmlns:xlink="http://www.w3.org/1999/xlink" x="0px" y="0px"
	 width="50px" height="50px" viewBox="0 0 50 50" enable-background="new 0 0 50 50" xml:space="preserve">
<g>
	<path fill="#414042" d="M47.384,25.173C47.288,13.432,38.108,3.822,26.545,3.022v-1.37c0-0.857-0.695-1.553-1.554-1.553
		c-0.857,0-1.553,0.696-1.553,1.553v1.369C18.132,3.384,13.172,5.592,9.336,9.344c-4.2,4.108-6.59,9.602-6.731,15.469
		c-0.021,0.838,0.629,1.541,1.467,1.588c0.838,0.061,1.561-0.582,1.633-1.418c0.16-1.874,1.759-3.343,3.641-3.343
		c2.017,0,3.658,1.641,3.658,3.659c0,0.856,0.696,1.554,1.554,1.554s1.553-0.697,1.553-1.554c0-2.018,1.641-3.659,3.657-3.659
		s3.658,1.641,3.658,3.659c0,0.856,0.696,1.554,1.553,1.554c0.858,0,1.553-0.697,1.553-1.554c0-2.018,1.643-3.659,3.66-3.659
		c2.01,0,3.646,1.631,3.656,3.638c-0.001,0.031-0.002,0.06-0.002,0.084c0,0.857,0.694,1.551,1.553,1.551h0.006
		c0.858,0,1.554-0.693,1.554-1.551c0-0.018-0.001-0.048-0.002-0.076c0.007-2.011,1.645-3.646,3.656-3.646
		c2.007,0,3.64,1.623,3.659,3.625c-0.002,0.033-0.004,0.071-0.004,0.097c0,0.857,0.695,1.551,1.554,1.551h0.012
		c0.004,0,0.009,0,0.011,0c0.857,0,1.553-0.693,1.553-1.551C47.396,25.297,47.393,25.234,47.384,25.173z M9.345,18.533
		c-0.903,0-1.771,0.183-2.567,0.514c2.006-5.71,6.65-10.224,12.416-12.07c-2.548,2.927-4.42,7.748-5.105,13.505
		C12.866,19.278,11.191,18.533,9.345,18.533z M30.19,18.533c-1.57,0-3.016,0.537-4.163,1.436v-8.886
		c0-0.572-0.464-1.036-1.036-1.036c-0.571,0-1.035,0.463-1.035,1.036v8.909c-1.154-0.913-2.608-1.459-4.189-1.459
		c-1.263,0-2.443,0.354-3.456,0.958c1.102-7.233,4.173-12.66,7.825-13.401c0.282-0.013,0.567-0.021,0.853-0.021
		c0.279,0,0.558,0.007,0.833,0.019c3.634,0.735,6.729,6.221,7.846,13.416C32.65,18.89,31.462,18.533,30.19,18.533z M40.611,18.533
		c-1.831,0-3.494,0.732-4.714,1.919c-0.68-5.754-2.532-10.56-5.075-13.479c5.796,1.843,10.414,6.354,12.399,12.083
		C42.418,18.72,41.537,18.533,40.611,18.533z"/>
	<path fill="#414042" d="M31.707,43.43c-0.857,0-1.553,0.695-1.553,1.553c0,0.998-0.812,1.812-1.812,1.812s-1.812-0.814-1.812-1.812
		v-14.07c0-0.855-0.694-1.551-1.553-1.551c-0.857,0-1.553,0.695-1.553,1.551v14.07c0,2.713,2.207,4.918,4.918,4.918
		c2.711,0,4.918-2.205,4.918-4.918C33.261,44.125,32.565,43.43,31.707,43.43z"/>
</g>
</svg>
