<?xml version="1.0" encoding="utf-8"?>
<!-- Generator: Adobe Illustrator 16.0.0, SVG Export Plug-In . SVG Version: 6.00 Build 0)  -->
<!DOCTYPE svg PUBLIC "-//W3C//DTD SVG 1.1//EN" "http://www.w3.org/Graphics/SVG/1.1/DTD/svg11.dtd">
<svg version="1.1" id="Layer_1" xmlns="http://www.w3.org/2000/svg" xmlns:xlink="http://www.w3.org/1999/xlink" x="0px" y="0px"
	 width="50px" height="50px" viewBox="0 0 50 50" enable-background="new 0 0 50 50" xml:space="preserve">
<g>
	<path fill="#414042" d="M32.81,43.748h-6.188v-2.781c0-0.844-0.686-1.531-1.531-1.531c-0.847,0-1.529,0.688-1.529,1.531v2.781
		h-6.193c-0.845,0-1.53,0.684-1.53,1.531c0,0.844,0.686,1.529,1.53,1.529H32.81c0.847,0,1.53-0.686,1.53-1.529
		C34.34,44.432,33.656,43.748,32.81,43.748z"/>
	<path fill="#414042" d="M46.443,6.441H3.558c-1.69,0-3.06,1.371-3.06,3.059v24.859c0,1.689,1.37,3.062,3.06,3.062h42.886
		c1.69,0,3.059-1.373,3.059-3.062V9.5C49.502,7.812,48.134,6.441,46.443,6.441z M3.558,34.359V32.15H33
		c0.561,0,1.021-0.455,1.021-1.016c0-0.566-0.461-1.021-1.021-1.021H3.558V9.5h42.886v20.613h-7.232
		c-0.561,0-1.021,0.455-1.021,1.021c0,0.561,0.461,1.016,1.021,1.016h7.232v2.209H3.558z"/>
</g>
</svg>
