<?xml version="1.0" encoding="utf-8"?>
<!-- Generator: Adobe Illustrator 16.0.4, SVG Export Plug-In . SVG Version: 6.00 Build 0)  -->
<!DOCTYPE svg PUBLIC "-//W3C//DTD SVG 1.1//EN" "http://www.w3.org/Graphics/SVG/1.1/DTD/svg11.dtd">
<svg version="1.1" id="Layer_1" xmlns="http://www.w3.org/2000/svg" xmlns:xlink="http://www.w3.org/1999/xlink" x="0px" y="0px"
	 width="100px" height="100px" viewBox="-21.429 -25 100 100" enable-background="new -21.429 -25 100 100" xml:space="preserve">
<g>
	<path fill="#414042" d="M35.018,42.396h-6.101v-2.739c0-0.832-0.675-1.507-1.509-1.507c-0.832,0-1.508,0.675-1.508,1.507v2.739
		h-6.099c-0.833,0-1.507,0.676-1.507,1.51c0,0.833,0.674,1.507,1.507,1.507h15.216c0.832,0,1.507-0.674,1.507-1.507
		C36.524,43.071,35.85,42.396,35.018,42.396z"/>
	<path fill="#414042" d="M48.449,5.638H6.194c-1.665,0-3.015,1.351-3.015,3.015v24.495c0,1.665,1.35,3.016,3.015,3.016h42.255
		c1.665,0,3.016-1.351,3.016-3.016V8.653C51.465,6.988,50.114,5.638,48.449,5.638z M6.194,33.147v-2.175h29.01
		c0.555,0,1.005-0.451,1.005-1.005c0-0.556-0.45-1.005-1.005-1.005H6.194V8.653h42.255v20.31h-7.125
		c-0.555,0-1.005,0.449-1.005,1.005c0,0.554,0.45,1.005,1.005,1.005h7.125v2.175H6.194z"/>
</g>
</svg>
