<?xml version="1.0" encoding="utf-8"?>
<!-- Generator: Adobe Illustrator 16.0.4, SVG Export Plug-In . SVG Version: 6.00 Build 0)  -->
<!DOCTYPE svg PUBLIC "-//W3C//DTD SVG 1.1//EN" "http://www.w3.org/Graphics/SVG/1.1/DTD/svg11.dtd">
<svg version="1.1" id="Layer_1" xmlns="http://www.w3.org/2000/svg" xmlns:xlink="http://www.w3.org/1999/xlink" x="0px" y="0px"
	 width="100px" height="100px" viewBox="-21.429 -25 100 100" enable-background="new -21.429 -25 100 100" xml:space="preserve">
<g>
	<path fill="#414042" d="M16.566,19.819c0.589-0.133,0.96-0.718,0.827-1.308c-0.278-1.239-0.32-2.509-0.125-3.776
		C18.124,9.2,23.322,5.393,28.862,6.25c1.307,0.202,2.537,0.646,3.659,1.317c0.521,0.311,1.19,0.142,1.5-0.376
		c0.31-0.519,0.142-1.191-0.376-1.501c-1.365-0.817-2.863-1.356-4.449-1.602c-6.724-1.042-13.05,3.585-14.091,10.313
		c-0.236,1.54-0.185,3.084,0.154,4.59c0.113,0.508,0.565,0.854,1.065,0.854C16.404,19.846,16.485,19.837,16.566,19.819z"/>
	<path fill="#414042" d="M47.019,27.979c0-1.563-0.614-2.943-1.647-3.898c1.036-2.393,1.618-5.024,1.618-7.792
		c0-10.854-8.828-19.683-19.682-19.683S7.625,5.435,7.625,16.288c0,6.501,3.175,12.264,8.049,15.85
		c0.035,0.195,0.08,0.391,0.136,0.584c0.186,0.634,0.442,1.201,0.766,1.693c1.765,2.69,3.766,5.739,5.75,8.711
		c2.011,3.01,4.92,4.88,8.647,5.562c0.471,0.083,0.899,0.14,1.312,0.191c0.199,0.027,0.398,0.053,0.597,0.082
		c0.155,0.022,0.313,0.033,0.472,0.033h2.223c0.176,0,0.351-0.013,0.524-0.041c0.194-0.032,0.391-0.062,0.587-0.093
		c0.337-0.053,0.674-0.106,1.01-0.162c4.709-0.812,8.263-4.354,9.06-9.026c0.162-0.935,0.247-1.88,0.251-2.805
		c0.011-3.508,0.011-3.947,0.01-5.365C47.017,30.773,47.017,29.783,47.019,27.979z M10.906,16.288
		c0-9.059,7.344-16.401,16.401-16.401s16.4,7.342,16.4,16.401c0,2.299-0.481,4.482-1.336,6.468
		c-0.153-0.015-0.307-0.025-0.461-0.025c-0.475,0-0.938,0.065-1.381,0.19c-0.511-0.482-1.122-0.861-1.811-1.097
		c-0.112-0.039-0.226-0.07-0.34-0.101c0.541-1.092,0.931-2.28,1.127-3.548c0.422-2.728-0.059-5.444-1.392-7.855
		c-0.293-0.528-0.959-0.721-1.488-0.428c-0.527,0.292-0.72,0.958-0.428,1.487c1.097,1.983,1.493,4.218,1.146,6.461
		c-0.22,1.415-0.729,2.711-1.451,3.847c-0.066,0.015-0.134,0.023-0.197,0.04c-0.449-0.414-0.989-0.754-1.607-1.014
		c-0.473-0.25-0.999-0.382-1.536-0.382h-0.11c0-1.408,0-2.746-0.002-3.818c0-2.664-1.77-4.734-4.403-5.148
		c-0.25-0.039-0.496-0.059-0.736-0.059c-2.575,0-4.84,2.071-5.047,4.615c-0.024,0.327-0.024,0.602-0.024,0.822v8.329
		c-1.021-0.587-1.943-1.347-2.712-2.266c-0.388-0.462-1.077-0.525-1.542-0.137c-0.463,0.388-0.524,1.078-0.138,1.542
		c0.534,0.637,1.133,1.208,1.774,1.72c-1.33,0.339-2.495,1.188-3.222,2.377c-0.028,0.047-0.05,0.095-0.076,0.141
		C12.995,25.448,10.906,21.114,10.906,16.288z M43.726,36.854c-0.003,0.754-0.075,1.519-0.203,2.266
		c-0.563,3.3-3.063,5.771-6.375,6.343c-0.521,0.087-1.047,0.165-1.571,0.251c-0.74,0-1.481,0-2.223,0
		c-0.596-0.088-1.197-0.15-1.791-0.257c-2.732-0.498-4.95-1.822-6.507-4.153c-1.93-2.888-3.833-5.786-5.736-8.688
		c-0.16-0.244-0.275-0.529-0.358-0.811c-0.356-1.227,0.367-2.492,1.572-2.727c0.176-0.032,0.346-0.051,0.507-0.051
		c0.733,0,1.358,0.331,1.838,0.952c0.798,1.031,1.552,2.095,2.323,3.146c0.081,0.112,0.163,0.224,0.247,0.334
		c0.021-0.009,0.042-0.016,0.062-0.025c0-0.098,0-0.196,0-0.294c0-4.809,0-11.587,0-16.396c0-0.186,0-0.37,0.015-0.557
		c0.07-0.865,0.914-1.598,1.775-1.598c0.074,0,0.151,0.006,0.227,0.019c1.019,0.16,1.631,0.868,1.631,1.909
		c0.003,2.918,0,7.803,0.004,10.723c0,0.152,0.011,0.311,0.055,0.455c0.075,0.236,0.254,0.362,0.507,0.382c0.019,0,0.037,0,0.054,0
		c0.241,0,0.42-0.122,0.515-0.337c0.061-0.135,0.064-0.299,0.064-0.453c0-1.004-0.003-1.32-0.003-1.32L30.351,26.9
		c0-0.003,0-0.323,0.002-1.322c0-0.658,0.222-1.232,0.783-1.623c0.206-0.141,0.451-0.229,0.679-0.341c0.246,0,0.492,0,0.738,0
		c0.026,0.02,0.046,0.043,0.075,0.054c0.958,0.331,1.404,0.953,1.404,1.96c-0.003,0.989-0.003,1.305-0.004,1.305l-0.001-0.962
		c0,0,0,0.316,0,1.306c0,0.094-0.002,0.186,0.008,0.276c0.04,0.315,0.282,0.524,0.588,0.524c0.02,0,0.038,0,0.057-0.001
		c0.324-0.029,0.509-0.25,0.531-0.649c0-0.004,0-0.007,0-0.011c0.002-0.023,0.002-0.049,0.002-0.072c0-0.264,0-0.466,0-0.621
		c0.015-0.43,0.119-0.834,0.396-1.185c0.363-0.46,0.892-0.711,1.444-0.711c0.199,0,0.402,0.033,0.601,0.1
		c0.758,0.262,1.242,0.997,1.242,1.874c-0.001,0.99-0.003,1.307-0.003,1.307s-0.002-0.964-0.003-0.964c0,0,0,0.315,0,1.306
		c0,0.114,0,0.228,0.012,0.34c0.037,0.297,0.229,0.45,0.505,0.505c0.027,0.007,0.057,0.008,0.087,0.008
		c0.218,0,0.449-0.151,0.523-0.371c0.048-0.142,0.061-0.3,0.061-0.454c0-0.134,0-0.249,0.001-0.347c0,0.307,0,0.665,0,0.665
		c0.003,0,0.005-0.2,0.007-0.777c0.003-0.319,0.061-0.662,0.188-0.954c0.288-0.655,0.952-1.051,1.637-1.051
		c0.127,0,0.25,0.015,0.377,0.042c0.887,0.193,1.447,0.947,1.447,1.922C43.732,33.279,43.742,31.55,43.726,36.854z"/>
</g>
</svg>
