<?xml version="1.0" encoding="utf-8"?>
<!-- Generator: Adobe Illustrator 16.0.0, SVG Export Plug-In . SVG Version: 6.00 Build 0)  -->
<!DOCTYPE svg PUBLIC "-//W3C//DTD SVG 1.1//EN" "http://www.w3.org/Graphics/SVG/1.1/DTD/svg11.dtd">
<svg version="1.1" id="Layer_1" xmlns="http://www.w3.org/2000/svg" xmlns:xlink="http://www.w3.org/1999/xlink" x="0px" y="0px"
	 width="50px" height="50px" viewBox="0 0 50 50" enable-background="new 0 0 50 50" xml:space="preserve">
<g>
	<path fill="#414042" d="M25.158,23.861c6.565,0,11.9-5.337,11.9-11.897c0-6.563-5.335-11.9-11.9-11.9
		c-6.56,0-11.897,5.337-11.897,11.9C13.261,18.524,18.598,23.861,25.158,23.861z M25.158,3.17c4.851,0,8.794,3.944,8.794,8.793
		c0,4.846-3.943,8.791-8.794,8.791c-4.845,0-8.79-3.945-8.79-8.791C16.369,7.114,20.313,3.17,25.158,3.17z"/>
	<path fill="#414042" d="M45.659,36.18c-2.978-5.146-7.737-8.959-13.393-10.736c-0.732-0.232-1.528,0.108-1.865,0.802
		c-1.187,2.452-2.99,4.508-5.243,6.002c-2.25-1.494-4.051-3.55-5.239-6.002c-0.338-0.693-1.129-1.034-1.864-0.802
		c-5.66,1.777-10.418,5.59-13.393,10.736c-0.28,0.48-0.28,1.073,0,1.558c4.222,7.298,12.077,11.835,20.496,11.835
		c8.421,0,16.277-4.537,20.501-11.835C45.938,37.253,45.938,36.66,45.659,36.18z M32.542,28.829c0.86,0.324,1.687,0.715,2.484,1.151
		c-1.258,2.184-3.039,4.779-5.3,6.782c-0.257-0.222-0.52-0.456-0.792-0.703c-0.555-0.502-1.122-1.012-1.711-1.472
		C29.396,33.077,31.21,31.123,32.542,28.829z M23.096,34.588c-0.59,0.46-1.157,0.97-1.713,1.472
		c-0.271,0.247-0.535,0.481-0.79,0.703c-2.258-2.003-4.041-4.599-5.302-6.782c0.798-0.437,1.629-0.827,2.484-1.151
		C19.112,31.123,20.922,33.077,23.096,34.588z M26.195,46.43v-6.849c0-0.567-0.465-1.037-1.037-1.037
		c-0.571,0-1.034,0.47-1.034,1.037v6.849c-6.617-0.338-12.723-3.88-16.303-9.474c1.501-2.344,3.442-4.343,5.705-5.894
		c1.472,2.546,3.624,5.618,6.41,7.859c0.374,0.301,0.907,0.306,1.286,0.009c0.512-0.399,1.016-0.852,1.546-1.332
		c0.786-0.708,1.592-1.433,2.389-1.938c0.803,0.505,1.609,1.229,2.39,1.938c0.535,0.48,1.038,0.933,1.549,1.332
		c0.188,0.148,0.412,0.218,0.636,0.218c0.23,0,0.462-0.074,0.65-0.227c2.784-2.241,4.936-5.313,6.413-7.859
		c2.258,1.551,4.203,3.55,5.7,5.894C38.918,42.55,32.81,46.092,26.195,46.43z"/>
</g>
</svg>
